<?xml version="1.0" encoding="UTF-8"?><svg id="Layer_1" xmlns="http://www.w3.org/2000/svg" viewBox="0 0 889.44 50.58"><defs><style>.cls-1{fill:none;stroke:#437237;stroke-miterlimit:10;}.cls-2{opacity:.9;}</style></defs><g class="cls-2"><path class="cls-1" d="M18.99,10.22l-2,10.41h21.72l-1.67,8.63H15.24l-2.14,11.09h25.53l-1.8,8.9H.61L9.96,1.32H45.32l-1.8,8.9H18.99Z"/><path class="cls-1" d="M92.77,34.47l8.15,14.79h-11.43l-7.35-13.42h-9.22l-2.61,13.42h-10.89L68.77,1.32h19.05c11.63,0,18.31,5.48,18.31,14.86s-5.01,15.61-13.37,18.28Zm2.41-17.26c0-4.66-3.21-6.85-8.75-6.85h-8.55l-3.27,16.64h9.22c7.15,0,11.36-3.42,11.36-9.79Z"/><path class="cls-1" d="M131.86,1.32h10.89l-9.36,47.94h-10.89L131.86,1.32Z"/><path class="cls-1" d="M210.65,1.32l-9.36,47.94h-8.89l-17.44-30-5.88,30h-10.69L167.74,1.32h8.96l17.44,30.06,5.81-30.06h10.69Z"/><path class="cls-1" d="M260.7,29.26c0-16.37,11.7-28.76,29.07-28.76,8.29,0,15.04,3.01,18.38,8.49l-7.82,6.57c-2.41-3.63-6.15-5.62-11.29-5.62-10.56,0-17.38,8.29-17.38,18.63,0,7.26,4.68,12.05,13.1,12.05,4.75,0,8.96-1.71,12.43-5.55l6.42,6.71c-4.95,5.89-11.76,8.29-19.78,8.29-14.3,0-23.12-8.49-23.12-20.82Z"/><path class="cls-1" d="M324.99,33.3c0-1.64,.2-3.36,.53-5.14l5.21-26.85h10.89l-5.21,26.64c-.27,1.51-.4,2.81-.4,4.04,0,5.82,3.21,8.63,9.02,8.63,6.55,0,10.36-3.7,12.16-12.67l5.21-26.64h10.63l-5.28,27.32c-2.81,14.18-10.76,21.44-23.93,21.44-11.76,0-18.85-6.44-18.85-16.78Z"/><path class="cls-1" d="M440.68,1.32l-9.36,47.94h-8.89l-17.44-30-5.88,30h-10.69L397.77,1.32h8.96l17.44,30.06,5.81-30.06h10.69Z"/><path class="cls-1" d="M508.64,1.32l-9.36,47.94h-8.89l-17.44-30-5.88,30h-10.69L465.73,1.32h8.96l17.44,30.06,5.81-30.06h10.69Z"/><path class="cls-1" d="M533.7,1.32h10.89l-9.36,47.94h-10.89l9.36-47.94Z"/><path class="cls-1" d="M612.49,1.32l-9.36,47.94h-8.89l-17.44-30-5.88,30h-10.69l9.36-47.94h8.96l17.44,30.06,5.81-30.06h10.69Z"/><path class="cls-1" d="M664.68,24.54h9.89l-3.88,19.72c-4.75,3.7-11.16,5.82-17.91,5.82-14.17,0-23.12-8.42-23.12-20.82,0-16.37,11.7-28.76,29.41-28.76,8.96,0,15.5,2.94,19.52,8.35l-7.75,6.44c-3.14-3.83-7.02-5.34-12.23-5.34-10.96,0-17.98,8.08-17.98,18.63,0,7.19,4.68,12.05,13.57,12.05,2.74,0,5.28-.55,7.75-1.71l2.74-14.38Z"/><path class="cls-1" d="M745.95,1.32l-9.36,47.94h-10.83l3.81-19.52h-21.19l-3.81,19.52h-10.89l9.36-47.94h10.89l-3.68,18.83h21.19l3.68-18.83h10.83Z"/><path class="cls-1" d="M794.93,38.99h-21.79l-6.08,10.27h-11.56L785.78,1.32h10.69l11.5,47.94h-10.83l-2.21-10.27Zm-1.8-8.42l-3.94-18.49-11.03,18.49h14.97Z"/><path class="cls-1" d="M888.83,1.32l-9.29,47.94h-10.16l5.48-28.49-17.84,23.42h-4.81l-9.62-23.69-5.61,28.76h-10.16l9.36-47.94h8.82l11.7,29.86,22.86-29.86h9.29Z"/></g></svg>