<?xml version="1.0" encoding="UTF-8"?><svg id="Layer_1" xmlns="http://www.w3.org/2000/svg" viewBox="0 0 780.44 42.2"><defs><style>.cls-1{fill:none;stroke:#437237;stroke-miterlimit:10;stroke-width:1.5px;}.cls-2{opacity:.9;}</style></defs><g class="cls-2"><path class="cls-1" d="M8.21,3.42h8.5l-5.94,30.33H29.06l-1.41,7.05H.91L8.21,3.42Z"/><path class="cls-1" d="M57.62,10.36l-1.56,8.12h16.94l-1.3,6.73h-16.99l-1.67,8.65h19.91l-1.41,6.94h-28.25L50.58,3.42h27.57l-1.41,6.94h-19.13Z"/><path class="cls-1" d="M102.6,10.47h-11.68l1.41-7.05h31.8l-1.41,7.05h-11.62l-5.94,30.33h-8.44l5.89-30.33Z"/><path class="cls-1" d="M147.89,5.56c0,1.55-.47,2.72-1.77,4.75l-5.16,8.6h-5.16l3.96-8.6c-1.25-.85-2.03-2.3-2.03-4.01,0-3.31,2.45-5.55,5.42-5.55,2.81,0,4.74,1.98,4.74,4.81Z"/><path class="cls-1" d="M156.64,37.28l3.44-6.68c3.34,2.51,7.71,3.9,12.04,3.9,4.64,0,7.56-1.66,7.56-4.38,0-5.98-18.09-2.78-18.09-14.69,0-7.69,6.57-12.66,16.68-12.66,4.9,0,9.43,1.12,12.61,3.2l-3.18,6.62c-2.76-1.92-6.31-2.88-9.9-2.88-4.9,0-7.77,1.92-7.77,4.59-.05,6.14,18.09,2.94,18.09,14.42,0,7.74-6.67,12.71-16.84,12.71-5.94,0-11.57-1.82-14.65-4.17Z"/><path class="cls-1" d="M226.43,37.28l3.44-6.68c3.34,2.51,7.71,3.9,12.04,3.9,4.64,0,7.56-1.66,7.56-4.38,0-5.98-18.09-2.78-18.09-14.69,0-7.69,6.57-12.66,16.68-12.66,4.9,0,9.43,1.12,12.61,3.2l-3.18,6.62c-2.76-1.92-6.31-2.88-9.9-2.88-4.9,0-7.77,1.92-7.77,4.59-.05,6.14,18.09,2.94,18.09,14.42,0,7.74-6.67,12.71-16.84,12.71-5.94,0-11.57-1.82-14.65-4.17Z"/><path class="cls-1" d="M285.43,10.47h-11.68l1.41-7.05h31.8l-1.41,7.05h-11.62l-5.94,30.33h-8.44l5.89-30.33Z"/><path class="cls-1" d="M339.22,32.79h-16.99l-4.74,8.01h-9.02L332.08,3.42h8.34l8.96,37.38h-8.44l-1.72-8.01Zm-1.41-6.57l-3.08-14.42-8.6,14.42h11.68Z"/><path class="cls-1" d="M381.86,27.83l-2.5,12.98h-8.44l2.55-13.35-9.38-24.03h8.44l6.52,16.66,13.08-16.66h8.71l-18.97,24.41Z"/><path class="cls-1" d="M440.91,3.42h8.5l-7.3,37.38h-8.5l7.3-37.38Z"/><path class="cls-1" d="M502.36,3.42l-7.3,37.38h-6.93l-13.6-23.39-4.59,23.39h-8.34l7.3-37.38h6.99l13.6,23.45,4.54-23.45h8.34Z"/><path class="cls-1" d="M553.69,10.47h-11.68l1.41-7.05h31.8l-1.41,7.05h-11.62l-5.94,30.33h-8.44l5.89-30.33Z"/><path class="cls-1" d="M583.98,25.21c0-12.76,9.12-22.43,22.57-22.43,11.1,0,17.77,6.62,17.77,16.24,0,12.76-9.12,22.43-22.57,22.43-11.1,0-17.77-6.62-17.77-16.24Zm31.8-5.71c0-5.55-3.54-9.35-9.96-9.35-8.24,0-13.29,6.68-13.29,14.58,0,5.55,3.54,9.35,9.96,9.35,8.24,0,13.29-6.68,13.29-14.58Z"/><path class="cls-1" d="M640.21,28.36c0-1.28,.16-2.62,.42-4.01l4.07-20.94h8.5l-4.07,20.77c-.21,1.18-.31,2.19-.31,3.15,0,4.54,2.5,6.73,7.04,6.73,5.11,0,8.08-2.88,9.49-9.88l4.07-20.77h8.29l-4.12,21.31c-2.19,11.06-8.39,16.72-18.66,16.72-9.17,0-14.7-5.02-14.7-13.08Z"/><path class="cls-1" d="M690.82,25.21c0-12.76,9.12-22.43,22.67-22.43,6.46,0,11.73,2.35,14.33,6.62l-6.1,5.13c-1.88-2.83-4.8-4.38-8.81-4.38-8.24,0-13.55,6.46-13.55,14.53,0,5.66,3.65,9.4,10.22,9.4,3.7,0,6.98-1.34,9.7-4.33l5,5.23c-3.86,4.59-9.17,6.46-15.43,6.46-11.15,0-18.04-6.62-18.04-16.24Z"/><path class="cls-1" d="M779.53,3.42l-7.3,37.38h-8.44l2.97-15.22h-16.52l-2.97,15.22h-8.5l7.3-37.38h8.5l-2.87,14.69h16.52l2.87-14.69h8.44Z"/></g></svg>