<?xml version="1.0" encoding="UTF-8"?><svg id="Layer_1" xmlns="http://www.w3.org/2000/svg" viewBox="0 0 939.88 138.39"><defs><style>.cls-1{fill:#fff;}.cls-2{fill:#427437;}</style></defs><path class="cls-2" d="M937.41,0c0,2.28-1.86,4.13-4.15,4.13s-4.15-1.85-4.15-4.13h-2.48c0,2.28-1.85,4.13-4.15,4.13s-4.15-1.85-4.15-4.13h-2.47c0,2.28-1.86,4.13-4.15,4.13s-4.15-1.85-4.15-4.13h-2.48c0,2.28-1.85,4.13-4.15,4.13s-4.15-1.85-4.15-4.13h-2.47c0,2.28-1.86,4.13-4.15,4.13s-4.15-1.85-4.15-4.13h-2.47c0,2.28-1.86,4.13-4.15,4.13s-4.15-1.85-4.15-4.13h-2.48c0,2.28-1.86,4.13-4.15,4.13s-4.15-1.85-4.15-4.13h-2.47c0,2.28-1.86,4.13-4.15,4.13s-4.15-1.85-4.15-4.13h-2.48c0,2.28-1.86,4.13-4.15,4.13s-4.15-1.85-4.15-4.13h-2.47c0,2.28-1.86,4.13-4.15,4.13s-4.15-1.85-4.15-4.13h-2.48c0,2.28-1.86,4.13-4.15,4.13s-4.15-1.85-4.15-4.13h-2.47c0,2.28-1.86,4.13-4.15,4.13s-4.15-1.85-4.15-4.13h-2.48c0,2.28-1.86,4.13-4.15,4.13s-4.15-1.85-4.15-4.13h-2.47c0,2.28-1.86,4.13-4.15,4.13s-4.15-1.85-4.15-4.13h-2.48c0,2.28-1.86,4.13-4.15,4.13s-4.15-1.85-4.15-4.13h-2.47c0,2.28-1.86,4.13-4.15,4.13s-4.15-1.85-4.15-4.13h-2.48c0,2.28-1.86,4.13-4.15,4.13s-4.15-1.85-4.15-4.13h-2.47c0,2.28-1.86,4.13-4.15,4.13s-4.15-1.85-4.15-4.13h-2.48c0,2.28-1.86,4.13-4.15,4.13s-4.15-1.85-4.15-4.13h-2.47c0,2.28-1.86,4.13-4.15,4.13s-4.15-1.85-4.15-4.13h-2.48c0,2.28-1.86,4.13-4.15,4.13s-4.15-1.85-4.15-4.13h-2.47c0,2.28-1.86,4.13-4.15,4.13s-4.15-1.85-4.15-4.13h-2.48c0,2.28-1.85,4.13-4.15,4.13s-4.15-1.85-4.15-4.13h-2.47c0,2.28-1.86,4.13-4.15,4.13s-4.15-1.85-4.15-4.13h-2.48c0,2.28-1.85,4.13-4.15,4.13s-4.15-1.85-4.15-4.13h-2.47c0,2.28-1.86,4.13-4.15,4.13s-4.15-1.85-4.15-4.13h-2.48c0,2.28-1.85,4.13-4.15,4.13s-4.15-1.85-4.15-4.13h-2.47c0,2.28-1.86,4.13-4.15,4.13s-4.15-1.85-4.15-4.13h-2.48c0,2.28-1.85,4.13-4.15,4.13s-4.15-1.85-4.15-4.13h-2.47c0,2.28-1.86,4.13-4.15,4.13s-4.15-1.85-4.15-4.13h-2.48c0,2.28-1.85,4.13-4.15,4.13s-4.14-1.85-4.14-4.13h-2.48c0,2.28-1.86,4.13-4.15,4.13s-4.15-1.85-4.15-4.13h-2.47c0,2.28-1.86,4.13-4.15,4.13s-4.15-1.85-4.15-4.13h-2.48c0,2.28-1.86,4.13-4.15,4.13s-4.15-1.85-4.15-4.13h-2.47c0,2.28-1.86,4.13-4.15,4.13s-4.15-1.85-4.15-4.13h-2.48c0,2.28-1.86,4.13-4.15,4.13s-4.15-1.85-4.15-4.13h-2.47c0,2.28-1.86,4.13-4.15,4.13s-4.15-1.85-4.15-4.13h-2.48c0,2.28-1.86,4.13-4.15,4.13s-4.15-1.85-4.15-4.13h-2.47c0,2.28-1.86,4.13-4.15,4.13s-4.15-1.85-4.15-4.13h-2.48c0,2.28-1.86,4.13-4.15,4.13s-4.15-1.85-4.15-4.13h-2.47c0,2.28-1.86,4.13-4.15,4.13s-4.15-1.85-4.15-4.13h-2.48c0,2.28-1.86,4.13-4.15,4.13s-4.15-1.85-4.15-4.13h-2.47c0,2.28-1.86,4.13-4.15,4.13s-4.15-1.85-4.15-4.13h-2.48c0,2.28-1.86,4.13-4.15,4.13s-4.15-1.85-4.15-4.13h-2.47c0,2.28-1.86,4.13-4.15,4.13s-4.15-1.85-4.15-4.13h-2.48c0,2.28-1.86,4.13-4.15,4.13s-4.15-1.85-4.15-4.13h-2.47c0,2.28-1.86,4.13-4.15,4.13s-4.15-1.85-4.15-4.13h-2.48c0,2.28-1.85,4.13-4.15,4.13s-4.15-1.85-4.15-4.13h-2.47c0,2.28-1.86,4.13-4.15,4.13s-4.15-1.85-4.15-4.13h-2.48c0,2.28-1.85,4.13-4.15,4.13s-4.15-1.85-4.15-4.13h-2.47c0,2.28-1.86,4.13-4.15,4.13s-4.15-1.85-4.15-4.13h-2.48c0,2.28-1.85,4.13-4.15,4.13s-4.15-1.85-4.15-4.13h-2.47c0,2.28-1.86,4.13-4.15,4.13s-4.15-1.85-4.15-4.13h-2.48c0,2.28-1.85,4.13-4.15,4.13s-4.15-1.85-4.15-4.13h-2.47c0,2.28-1.86,4.13-4.15,4.13s-4.15-1.85-4.15-4.13h-2.48c0,2.28-1.85,4.13-4.15,4.13s-4.15-1.85-4.15-4.13h-2.47c0,2.28-1.86,4.13-4.15,4.13s-4.15-1.85-4.15-4.13h-2.47c0,2.28-1.86,4.13-4.15,4.13s-4.15-1.85-4.15-4.13h-2.48c0,2.28-1.86,4.13-4.15,4.13s-4.15-1.85-4.15-4.13h-2.47c0,2.28-1.86,4.13-4.15,4.13s-4.15-1.85-4.15-4.13h-2.48c0,2.28-1.86,4.13-4.15,4.13s-4.15-1.85-4.15-4.13h-2.47c0,2.28-1.86,4.13-4.15,4.13s-4.15-1.85-4.15-4.13h-2.48c0,2.28-1.86,4.13-4.15,4.13s-4.15-1.85-4.15-4.13h-2.47c0,2.28-1.86,4.13-4.15,4.13s-4.15-1.85-4.15-4.13h-2.48c0,2.28-1.86,4.13-4.15,4.13s-4.15-1.85-4.15-4.13h-2.47c0,2.28-1.86,4.13-4.15,4.13s-4.15-1.85-4.15-4.13h-2.48c0,2.28-1.86,4.13-4.15,4.13s-4.15-1.85-4.15-4.13h-2.47c0,2.28-1.86,4.13-4.15,4.13s-4.15-1.85-4.15-4.13h-2.48c0,2.28-1.86,4.13-4.15,4.13s-4.15-1.85-4.15-4.13h-2.47c0,2.28-1.86,4.13-4.15,4.13s-4.15-1.85-4.15-4.13h-2.48c0,2.28-1.86,4.13-4.15,4.13s-4.15-1.85-4.15-4.13h-2.47c0,2.28-1.86,4.13-4.15,4.13s-4.15-1.85-4.15-4.13h-2.48c0,2.28-1.86,4.13-4.15,4.13s-4.15-1.85-4.15-4.13h-2.47c0,2.28-1.86,4.13-4.15,4.13s-4.15-1.85-4.15-4.13h-2.48c0,2.28-1.85,4.13-4.15,4.13s-4.15-1.85-4.15-4.13h-2.47c0,2.28-1.86,4.13-4.15,4.13s-4.15-1.85-4.15-4.13h-2.48c0,2.28-1.85,4.13-4.15,4.13s-4.15-1.85-4.15-4.13h-2.47c0,2.28-1.86,4.13-4.15,4.13s-4.15-1.85-4.15-4.13h-2.48c0,2.28-1.85,4.13-4.15,4.13s-4.15-1.85-4.15-4.13h-2.47c0,2.28-1.86,4.13-4.15,4.13s-4.15-1.85-4.15-4.13h-2.48c0,2.28-1.85,4.13-4.15,4.13s-4.15-1.85-4.15-4.13h-2.47c0,2.28-1.86,4.13-4.15,4.13s-4.15-1.85-4.15-4.13h-2.48c0,2.28-1.85,4.13-4.15,4.13s-4.14-1.85-4.14-4.13h-2.48c0,2.28-1.86,4.13-4.15,4.13s-4.15-1.85-4.15-4.13h-2.47c0,2.28-1.86,4.13-4.15,4.13s-4.15-1.85-4.15-4.13h-2.48c0,2.28-1.86,4.13-4.15,4.13S13.25,2.28,13.25,0h-2.47c0,2.28-1.86,4.13-4.15,4.13S2.48,2.28,2.48,0H0V138.39H939.88V0h-2.47ZM34.24,55.99c-2.01,0-4.02-.58-5.1-1.35l1.08-2.14c1.06,.69,2.68,1.19,4.2,1.19,1.78,0,2.53-.5,2.53-1.33,0-2.3-7.45-.14-7.45-4.94,0-2.28,2.05-3.77,5.3-3.77,1.6,0,3.43,.38,4.52,1.04l-1.09,2.14c-1.15-.68-2.3-.9-3.45-.9-1.72,0-2.53,.56-2.53,1.35,0,2.44,7.45,.27,7.45,4.99,0,2.26-2.08,3.72-5.46,3.72Zm15.14,0c-2.64,0-4.15-1.4-4.15-4.06v-5.8h-1.99v-2.26h1.99v-2.75h2.82v2.75h3.23v2.26h-3.23v5.73c0,1.18,.59,1.81,1.67,1.81,.59,0,1.15-.16,1.58-.5l.79,2.01c-.67,.54-1.69,.81-2.71,.81Zm14.72-9.66c-.25-.04-.45-.07-.65-.07-2.15,0-3.5,1.27-3.5,3.73v5.85h-2.82v-12.06h2.68v1.76c.82-1.26,2.28-1.89,4.29-1.89v2.68Zm15.13,9.51h-2.67v-1.47c-.67,1.04-1.98,1.62-3.79,1.62-2.75,0-4.49-1.51-4.49-3.61s1.35-3.59,5.01-3.59h3.12v-.18c0-1.64-1-2.62-3.01-2.62-1.35,0-2.75,.46-3.65,1.2l-1.11-2.05c1.29-1,3.16-1.49,5.1-1.49,3.48,0,5.49,1.64,5.49,5.12v7.07Zm10.86,.15c-2.64,0-4.16-1.4-4.16-4.06v-5.8h-1.98v-2.26h1.98v-2.75h2.83v2.75h3.22v2.26h-3.22v5.73c0,1.18,.58,1.81,1.67,1.81,.58,0,1.15-.16,1.58-.5l.79,2.01c-.68,.54-1.7,.81-2.71,.81Zm18.62-5.28h-9.46c.34,1.76,1.81,2.89,3.91,2.89,1.35,0,2.41-.43,3.27-1.31l1.51,1.74c-1.08,1.29-2.77,1.96-4.85,1.96-4.04,0-6.66-2.59-6.66-6.18s2.64-6.16,6.23-6.16,6.1,2.46,6.1,6.23c0,.22-.03,.56-.05,.83Zm17.43,3.3c0,4.38-2.28,6.36-6.5,6.36-2.26,0-4.49-.58-5.87-1.71l1.26-2.12c1.07,.88,2.78,1.44,4.45,1.44,2.66,0,3.84-1.22,3.84-3.66v-.63c-1,1.09-2.42,1.6-4.04,1.6-3.46,0-6.1-2.34-6.1-5.84s2.64-5.8,6.1-5.8c1.69,0,3.18,.54,4.17,1.73v-1.6h2.69v10.23Zm9.23,1.83h-2.82v-12.06h2.82v12.06Zm-1.4-14.04c-1.03,0-1.8-.75-1.8-1.7s.77-1.69,1.8-1.69,1.81,.7,1.81,1.62c0,1-.75,1.77-1.81,1.77Zm13.32,11.78c1.2,0,2.28-.52,3-1.67l2.17,1.26c-.92,1.81-2.8,2.82-5.14,2.82-3.82,0-6.53-2.57-6.53-6.18s2.71-6.16,6.53-6.16c2.34,0,4.22,.97,5.14,2.8l-2.17,1.26c-.72-1.15-1.8-1.67-3-1.67-2.07,0-3.65,1.44-3.65,3.77s1.58,3.77,3.65,3.77Zm31.06,2.26h-2.7v-1.56c-.95,1.15-2.35,1.71-4,1.71-3.5,0-6.09-2.43-6.09-6.18s2.59-6.16,6.09-6.16c1.56,0,2.94,.52,3.88,1.62v-6.18h2.82v16.75Zm17.7-5.13h-9.46c.34,1.76,1.81,2.89,3.91,2.89,1.35,0,2.42-.43,3.27-1.31l1.52,1.74c-1.09,1.29-2.78,1.96-4.86,1.96-4.04,0-6.66-2.59-6.66-6.18s2.64-6.16,6.23-6.16,6.1,2.46,6.1,6.23c0,.22-.02,.56-.05,.83Zm9.19,5.28c-2.01,0-4.02-.58-5.1-1.35l1.08-2.14c1.06,.69,2.69,1.19,4.2,1.19,1.79,0,2.53-.5,2.53-1.33,0-2.3-7.45-.14-7.45-4.94,0-2.28,2.06-3.77,5.31-3.77,1.6,0,3.43,.38,4.51,1.04l-1.08,2.14c-1.15-.68-2.3-.9-3.46-.9-1.71,0-2.52,.56-2.52,1.35,0,2.44,7.45,.27,7.45,4.99,0,2.26-2.08,3.72-5.47,3.72Zm13.43-.15h-2.82v-12.06h2.82v12.06Zm-1.4-14.04c-1.04,0-1.8-.75-1.8-1.7s.76-1.69,1.8-1.69,1.81,.7,1.81,1.62c0,1-.75,1.77-1.81,1.77Zm19.78,12.21c0,4.38-2.28,6.36-6.5,6.36-2.26,0-4.49-.58-5.87-1.71l1.26-2.12c1.06,.88,2.78,1.44,4.45,1.44,2.66,0,3.84-1.22,3.84-3.66v-.63c-1,1.09-2.42,1.6-4.04,1.6-3.46,0-6.1-2.34-6.1-5.84s2.64-5.8,6.1-5.8c1.69,0,3.18,.54,4.17,1.73v-1.6h2.69v10.23Zm18.28,1.83h-2.82v-6.55c0-2.14-1.06-3.18-2.86-3.18-2.01,0-3.37,1.22-3.37,3.63v6.1h-2.82v-12.06h2.69v1.56c.92-1.11,2.39-1.69,4.15-1.69,2.89,0,5.03,1.64,5.03,5.28v6.91Zm22.79-11.16c0-.27,.04-.57,.12-.94l.03-.12,.77,.24-.03,.11c-.08,.32-.12,.54-.12,.71,0,.74,.46,1.24,1.2,1.24,1.04,0,1.9-.46,2.64-1.4,.74-.95,1.09-1.92,1.09-2.95,0-1.29-.69-2.02-1.89-2.02-1.73,0-3.24,.9-4.59,2.78l-5.59,7.94h4.93v.67h-5.13c.18,1.1,.27,2.05,.27,2.91,0,1.42-.24,2.93-.7,4.47-.48,1.58-1.02,2.83-1.66,3.83-1.31,2.16-2.91,3.61-3.98,3.61-.98,0-1.48-.8-1.48-2.38,0-.94,.39-2.22,1.21-3.9,.73-1.55,1.52-3,2.34-4.32,.69-1.09,1.57-2.44,2.78-4.22h-4.31v-.67h4.76l5.95-8.4c1.43-2,3.27-3.11,5.2-3.11,1.67,0,2.66,1.05,2.66,2.81,0,1.22-.42,2.36-1.3,3.48-.87,1.08-1.95,1.64-3.2,1.64s-1.97-.8-1.97-2.01Zm35.3,6.28c-1.07,.88-2.11,1.71-3,2.4-.75,.55-1.64,1.13-2.67,1.8l-.03,.02c-2.06,1.27-3.9,1.84-5.99,1.84-1.75,0-2.63-.7-2.63-2.06,0-1.16,.79-2.79,2.37-4.81-.83-.18-1.55-.62-2.16-1.3-.38,.64-1.03,1.35-1.93,2.11l-.56,.48c-1.51,1.31-3.24,1.97-5.12,1.97-1.74,0-2.99-.56-3.7-1.66-.47,1.35-1.34,2.57-2.61,3.64-1.31,1.14-2.54,1.72-3.68,1.72-1.41,0-2.12-.84-2.12-2.47,0-1.45,.68-2.8,2.04-4.02,1.34-1.22,2.9-1.84,4.62-1.84,.37,0,.74,.06,1.1,.14l.13,.02-.15,.77-.12-.03c-.39-.07-.69-.12-.96-.12-1.5,0-2.86,.56-4.05,1.66-1.22,1.08-1.84,2.24-1.84,3.42s.45,1.69,1.35,1.69c1.06,0,2.19-.57,3.45-1.73,1.25-1.13,2.03-2.41,2.29-3.8-.1-.25-.14-.47-.14-.63,0-.24,.09-.65,.74-.65,.23,0,.23,.32,.23,.5v.21c.32,1.52,1.55,2.41,3.37,2.41,1.65,0,3.16-.59,4.64-1.81l.55-.47c1.01-.89,1.65-1.58,1.98-2.18-.19-.3-.34-.63-.44-1l-.02-.05,.04-.04c.24-.34,.44-.52,.63-.52,.17,0,.25,.18,.29,.26,.32,1.71,1.34,2.48,3.43,2.62h.23s-.14,.19-.14,.19c-1.98,2.46-2.98,4.24-2.98,5.32,0,.86,.63,1.29,1.87,1.29,1.94,0,3.68-.55,5.64-1.77,1.12-.69,1.94-1.26,2.6-1.77,.73-.54,1.68-1.31,2.92-2.36l.09-.07,.54,.59-.1,.09Zm11.99,5.03c-2.01,0-4.02-.58-5.1-1.35l1.08-2.14c1.06,.69,2.69,1.19,4.2,1.19,1.78,0,2.53-.5,2.53-1.33,0-2.3-7.45-.14-7.45-4.94,0-2.28,2.05-3.77,5.3-3.77,1.6,0,3.43,.38,4.52,1.04l-1.09,2.14c-1.15-.68-2.3-.9-3.45-.9-1.72,0-2.53,.56-2.53,1.35,0,2.44,7.45,.27,7.45,4.99,0,2.26-2.08,3.72-5.46,3.72Zm22.28-.15h-2.69v-1.54c-.9,1.11-2.32,1.69-3.88,1.69-3.09,0-5.19-1.69-5.19-5.32v-6.89h2.82v6.5c0,2.19,1.04,3.23,2.82,3.23,1.97,0,3.3-1.22,3.3-3.63v-6.1h2.82v12.06Zm11.92-2.26c1.2,0,2.28-.52,3-1.67l2.17,1.26c-.93,1.81-2.8,2.82-5.15,2.82-3.81,0-6.52-2.57-6.52-6.18s2.71-6.16,6.52-6.16c2.35,0,4.22,.97,5.15,2.8l-2.17,1.26c-.72-1.15-1.8-1.67-3-1.67-2.08,0-3.66,1.44-3.66,3.77s1.58,3.77,3.66,3.77Zm15.64,0c1.2,0,2.28-.52,3.01-1.67l2.16,1.26c-.92,1.81-2.8,2.82-5.14,2.82-3.82,0-6.53-2.57-6.53-6.18s2.71-6.16,6.53-6.16c2.34,0,4.22,.97,5.14,2.8l-2.16,1.26c-.73-1.15-1.81-1.67-3.01-1.67-2.07,0-3.65,1.44-3.65,3.77s1.58,3.77,3.65,3.77Zm21.43-2.87h-9.46c.34,1.76,1.81,2.89,3.9,2.89,1.36,0,2.42-.43,3.28-1.31l1.51,1.74c-1.08,1.29-2.78,1.96-4.85,1.96-4.04,0-6.66-2.59-6.66-6.18s2.64-6.16,6.23-6.16,6.09,2.46,6.09,6.23c0,.22-.02,.56-.04,.83Zm9.19,5.28c-2.01,0-4.02-.58-5.1-1.35l1.08-2.14c1.06,.69,2.68,1.19,4.2,1.19,1.78,0,2.52-.5,2.52-1.33,0-2.3-7.44-.14-7.44-4.94,0-2.28,2.05-3.77,5.3-3.77,1.6,0,3.43,.38,4.52,1.04l-1.09,2.14c-1.15-.68-2.3-.9-3.45-.9-1.72,0-2.53,.56-2.53,1.35,0,2.44,7.45,.27,7.45,4.99,0,2.26-2.08,3.72-5.46,3.72Zm14.33,0c-2.01,0-4.02-.58-5.1-1.35l1.08-2.14c1.06,.69,2.69,1.19,4.2,1.19,1.79,0,2.53-.5,2.53-1.33,0-2.3-7.45-.14-7.45-4.94,0-2.28,2.05-3.77,5.31-3.77,1.6,0,3.43,.38,4.51,1.04l-1.08,2.14c-1.15-.68-2.31-.9-3.46-.9-1.71,0-2.52,.56-2.52,1.35,0,2.44,7.44,.27,7.44,4.99,0,2.26-2.07,3.72-5.46,3.72Zm17.07-14.28c-.43-.3-.97-.5-1.56-.5-1.17,0-1.78,.65-1.78,1.94v.72h3.31v2.26h-3.22v9.71h-2.83v-9.71h-1.98v-2.26h1.98v-.76c0-2.53,1.52-4.18,4.32-4.18,.97,0,1.91,.2,2.55,.65l-.79,2.13Zm16.25,14.13h-2.69v-1.54c-.9,1.11-2.32,1.69-3.88,1.69-3.09,0-5.19-1.69-5.19-5.32v-6.89h2.82v6.5c0,2.19,1.04,3.23,2.82,3.23,1.97,0,3.3-1.22,3.3-3.63v-6.1h2.82v12.06Zm9.23,0h-2.82v-16.75h2.82v16.75Zm22.04,.15c-1.65,0-3.05-.56-4-1.71v1.56h-2.69v-16.75h2.83v6.16c.97-1.08,2.32-1.6,3.86-1.6,3.52,0,6.11,2.41,6.11,6.16s-2.59,6.18-6.11,6.18Zm23.18-.15h-2.69v-1.54c-.9,1.11-2.32,1.69-3.88,1.69-3.09,0-5.19-1.69-5.19-5.32v-6.89h2.82v6.5c0,2.19,1.04,3.23,2.82,3.23,1.97,0,3.3-1.22,3.3-3.63v-6.1h2.82v12.06Zm10.14,.15c-2.01,0-4.02-.58-5.1-1.35l1.08-2.14c1.06,.69,2.68,1.19,4.2,1.19,1.78,0,2.52-.5,2.52-1.33,0-2.3-7.44-.14-7.44-4.94,0-2.28,2.05-3.77,5.3-3.77,1.6,0,3.43,.38,4.52,1.04l-1.09,2.14c-1.15-.68-2.3-.9-3.45-.9-1.72,0-2.53,.56-2.53,1.35,0,2.44,7.45,.27,7.45,4.99,0,2.26-2.08,3.72-5.46,3.72Zm13.43-.15h-2.82v-12.06h2.82v12.06Zm-1.4-14.04c-1.04,0-1.81-.75-1.81-1.7s.77-1.69,1.81-1.69,1.8,.7,1.8,1.62c0,1-.74,1.77-1.8,1.77Zm19.68,14.04h-2.82v-6.55c0-2.14-1.06-3.18-2.86-3.18-2.02,0-3.37,1.22-3.37,3.63v6.1h-2.82v-12.06h2.69v1.56c.92-1.11,2.39-1.69,4.15-1.69,2.89,0,5.03,1.64,5.03,5.28v6.91Zm17.7-5.13h-9.46c.34,1.76,1.81,2.89,3.91,2.89,1.35,0,2.41-.43,3.27-1.31l1.51,1.74c-1.08,1.29-2.77,1.96-4.85,1.96-4.04,0-6.66-2.59-6.66-6.18s2.64-6.16,6.23-6.16,6.09,2.46,6.09,6.23c0,.22-.02,.56-.04,.83Zm9.19,5.28c-2.01,0-4.02-.58-5.1-1.35l1.08-2.14c1.06,.69,2.69,1.19,4.2,1.19,1.79,0,2.53-.5,2.53-1.33,0-2.3-7.45-.14-7.45-4.94,0-2.29,2.06-3.77,5.3-3.77,1.6,0,3.44,.38,4.52,1.04l-1.08,2.14c-1.16-.68-2.3-.9-3.46-.9-1.72,0-2.53,.56-2.53,1.35,0,2.44,7.45,.27,7.45,4.99,0,2.26-2.07,3.72-5.46,3.72Zm14.33,0c-2.01,0-4.01-.58-5.1-1.35l1.09-2.14c1.06,.69,2.68,1.19,4.19,1.19,1.79,0,2.53-.5,2.53-1.33,0-2.3-7.45-.14-7.45-4.94,0-2.28,2.06-3.77,5.31-3.77,1.6,0,3.43,.38,4.51,1.04l-1.08,2.14c-1.15-.68-2.3-.9-3.45-.9-1.72,0-2.53,.56-2.53,1.35,0,2.44,7.45,.27,7.45,4.99,0,2.26-2.08,3.72-5.47,3.72Zm88.48-5.03c-1.38,1.15-2.4,1.94-3,2.4-.76,.55-1.63,1.13-2.69,1.82-2.06,1.27-3.9,1.84-5.99,1.84s-2.52-1.01-2.52-1.84c0-.64,.25-1.41,.73-2.33-1.19,.97-2.49,1.81-3.84,2.51-1.59,.84-2.89,1.26-3.86,1.26-1.15,0-1.74-.52-1.74-1.53,0-.7,.13-1.36,.38-1.98-.11,.08-.22,.16-.34,.25-.68,.51-1.5,1.04-2.43,1.64l-.25,.17c-2.06,1.28-3.91,1.85-5.99,1.85-1.9,0-2.86-.74-2.86-2.19,0-.54,.22-1.28,.7-2.26,.45-.92,.68-1.65,.68-2.15,0-.11,0-.43-.94-.43-1.59,0-3.34,.61-5.38,1.88-1.99,1.26-3.64,2.66-4.92,4.18l-.09,.11-.53-.55,.05-.07c.08-.13,.31-.38,.49-.59,.79-1.16,1.2-2.38,1.2-3.58,0-1.51-.49-2.22-1.51-2.22s-2.2,.6-3.74,1.81l-.04,.02-.55,.47c-.99,.8-1.81,1.45-2.42,1.91-.68,.51-1.49,1.04-2.43,1.64l-.25,.17c-2.06,1.28-3.9,1.85-5.99,1.85-1.91,0-2.89-.7-2.89-2.06,0-.48,.13-1.01,.41-1.6-1.2,.89-2.39,1.62-3.61,2.21-1.4,.7-2.52,1.05-3.42,1.05-1.15,0-1.74-.52-1.74-1.53,0-1.75,.8-3.3,2.37-4.61,1.6-1.34,3.29-2.02,5.02-2.02s3.28,.28,4.75,.86l.67-.4,.37,.67-.08,.07c-.33,.24-1.14,.92-2.36,2.01-1.05,1.27-1.61,2.38-1.61,3.29,0,.86,.72,1.29,2.12,1.29,1.93,0,3.67-.55,5.64-1.77,1.13-.7,1.95-1.27,2.6-1.77,.59-.45,1.37-1.06,2.36-1.88l.6-.5c.63-.5,1.33-.93,2.08-1.29,.85-.42,1.63-.63,2.31-.63,1.42,0,2.14,.96,2.14,2.83,0,.68-.14,1.42-.42,2.22,1.34-1.17,2.76-2.14,4.22-2.91,1.71-.9,3.21-1.35,4.58-1.35s1.71,.66,1.71,1.22c0,.51-.23,1.25-.7,2.25-.45,.92-.68,1.65-.68,2.16,0,.96,.69,1.42,2.09,1.42,1.93,0,3.67-.55,5.64-1.77,1.12-.7,1.95-1.27,2.59-1.77,.57-.43,1.51-1.16,2.78-2.23l.04-.03h.01s.02-.02,.04-.03c0,0,.02-.02,.03-.03,0-.01,.01-.01,.01-.01l.07-.08h.02c1.53-1.21,3.15-1.84,4.8-1.84,1.53,0,3.02,.26,4.45,.75,1.24-1.59,2.92-3.57,4.85-5.73l.08-.09,.54,.55-.08,.08c-4.79,5.42-7.76,9.17-7.76,11.16,0,.71,.57,1.07,1.75,1.07,1.93,0,3.67-.55,5.64-1.77,1.13-.7,1.95-1.27,2.59-1.77,.71-.53,1.67-1.29,2.93-2.36l.08-.07,.54,.59-.1,.09Zm14.97,5.03c-1.53,0-2.88-.52-3.86-1.62v5.85h-2.82v-16.44h2.69v1.58c.95-1.15,2.35-1.71,3.99-1.71,3.53,0,6.12,2.43,6.12,6.16s-2.59,6.18-6.12,6.18Zm16.94,0c-3.71,0-6.42-2.57-6.42-6.18s2.71-6.16,6.42-6.16,6.43,2.55,6.43,6.16-2.69,6.18-6.43,6.18Zm15.57,0c-2.01,0-4.02-.58-5.1-1.35l1.08-2.14c1.07,.69,2.69,1.19,4.2,1.19,1.79,0,2.53-.5,2.53-1.33,0-2.3-7.45-.14-7.45-4.94,0-2.28,2.06-3.77,5.31-3.77,1.6,0,3.43,.38,4.51,1.04l-1.08,2.14c-1.15-.68-2.3-.9-3.46-.9-1.71,0-2.52,.56-2.52,1.35,0,2.44,7.45,.27,7.45,4.99,0,2.26-2.08,3.72-5.47,3.72Zm13.43-.15h-2.82v-12.06h2.82v12.06Zm-1.4-14.04c-1.03,0-1.8-.75-1.8-1.7s.77-1.69,1.8-1.69,1.81,.7,1.81,1.62c0,1-.74,1.77-1.81,1.77Zm12.35,14.19c-2.64,0-4.15-1.4-4.15-4.06v-5.8h-1.99v-2.26h1.99v-2.75h2.82v2.75h3.23v2.26h-3.23v5.73c0,1.18,.59,1.81,1.67,1.81,.59,0,1.15-.16,1.58-.5l.79,2.01c-.67,.54-1.69,.81-2.71,.81Zm10.57-.15h-2.82v-12.06h2.82v12.06Zm-1.4-14.04c-1.04,0-1.81-.75-1.81-1.7s.77-1.69,1.81-1.69,1.8,.7,1.8,1.62c0,1-.74,1.77-1.8,1.77Zm13.93,14.04h-2.91l-5.17-12.06h2.93l3.75,8.94,3.86-8.94h2.71l-5.17,12.06Zm20.58-5.13h-9.45c.34,1.76,1.8,2.89,3.9,2.89,1.36,0,2.42-.43,3.27-1.31l1.52,1.74c-1.09,1.29-2.78,1.96-4.86,1.96-4.04,0-6.65-2.59-6.65-6.18s2.64-6.16,6.23-6.16,6.09,2.46,6.09,6.23c0,.22-.02,.56-.05,.83Zm19.92,2.87c1.19,0,2.28-.52,3-1.67l2.17,1.26c-.93,1.81-2.8,2.82-5.15,2.82-3.82,0-6.52-2.57-6.52-6.18s2.7-6.16,6.52-6.16c2.35,0,4.22,.97,5.15,2.8l-2.17,1.26c-.72-1.15-1.81-1.67-3-1.67-2.08,0-3.66,1.44-3.66,3.77s1.58,3.77,3.66,3.77Zm22.07,2.26h-2.82v-6.55c0-2.14-1.06-3.18-2.86-3.18-2.01,0-3.37,1.22-3.37,3.63v6.1h-2.82v-16.75h2.82v6.09c.93-.99,2.35-1.53,4.02-1.53,2.89,0,5.03,1.64,5.03,5.28v6.91Zm16.39,0h-2.66v-1.47c-.68,1.04-1.99,1.62-3.79,1.62-2.76,0-4.49-1.51-4.49-3.61s1.35-3.59,5.01-3.59h3.11v-.18c0-1.64-.99-2.62-3-2.62-1.35,0-2.75,.46-3.66,1.2l-1.1-2.05c1.28-1,3.16-1.49,5.1-1.49,3.47,0,5.48,1.64,5.48,5.12v7.07Zm18.2,0h-2.82v-6.55c0-2.14-1.07-3.18-2.87-3.18-2.01,0-3.36,1.22-3.36,3.63v6.1h-2.83v-12.06h2.69v1.56c.93-1.11,2.39-1.69,4.15-1.69,2.89,0,5.04,1.64,5.04,5.28v6.91Zm18.37-1.83c0,4.38-2.28,6.36-6.5,6.36-2.26,0-4.49-.58-5.87-1.71l1.27-2.12c1.06,.88,2.77,1.44,4.44,1.44,2.67,0,3.84-1.22,3.84-3.66v-.63c-.99,1.09-2.41,1.6-4.04,1.6-3.45,0-6.09-2.34-6.09-5.84s2.64-5.8,6.09-5.8c1.69,0,3.18,.54,4.18,1.73v-1.6h2.68v10.23Zm17.7-3.3h-9.46c.34,1.76,1.81,2.89,3.91,2.89,1.35,0,2.41-.43,3.27-1.31l1.51,1.74c-1.08,1.29-2.77,1.96-4.85,1.96-4.04,0-6.66-2.59-6.66-6.18s2.64-6.16,6.23-6.16,6.1,2.46,6.1,6.23c0,.22-.03,.56-.05,.83Z"/><path class="cls-2" d="M76.41,50.67v1.4c-.48,1.24-1.67,1.87-3.05,1.87-1.45,0-2.3-.65-2.3-1.67,0-.88,.52-1.6,2.43-1.6h2.92Z"/><path class="cls-2" d="M106.07,48.84h-6.84c.27-1.76,1.6-2.94,3.43-2.94s3.19,1.2,3.41,2.94Z"/><path class="cls-2" d="M123.36,49.45c0,2.05-1.53,3.45-3.65,3.45s-3.68-1.4-3.68-3.45,1.53-3.41,3.68-3.41,3.65,1.38,3.65,3.41Z"/><path class="cls-2" d="M175.58,49.71c0,2.28-1.56,3.74-3.59,3.74s-3.59-1.46-3.59-3.74,1.56-3.74,3.59-3.74,3.59,1.46,3.59,3.74Z"/><path class="cls-2" d="M193.41,48.84h-6.84c.27-1.76,1.61-2.94,3.43-2.94s3.19,1.2,3.41,2.94Z"/><path class="cls-2" d="M234.23,50.09c0,2.44-1.52,4.1-3.64,4.1s-3.65-1.66-3.65-4.1,1.52-4.05,3.65-4.05,3.64,1.64,3.64,4.05Z"/><path class="cls-2" d="M271.04,53.85c0,1.8-.34,3.63-1.03,5.42-.69,1.81-1.45,3.19-2.31,4.22-.84,.99-1.59,1.49-2.22,1.49-.17,0-.7,0-.7-1.6,0-1.36,.71-3.19,2.24-5.79,.63-1.05,1.24-2.04,1.86-3.02,.35-.58,.89-1.38,1.57-2.4l.39-.57c.14,.69,.2,1.43,.2,2.25Z"/><path class="cls-2" d="M394.04,48.84h-6.84c.27-1.76,1.6-2.94,3.43-2.94s3.18,1.2,3.41,2.94Z"/><path class="cls-2" d="M488.04,49.81c0,2.3-1.54,3.77-3.57,3.77s-3.59-1.47-3.59-3.77,1.56-3.77,3.59-3.77,3.57,1.47,3.57,3.77Z"/><path class="cls-2" d="M564.88,48.84h-6.84c.27-1.76,1.6-2.94,3.43-2.94s3.18,1.2,3.41,2.94Z"/><g><path class="cls-1" d="M659.21,50.45s-.05,.04-.07,.07c.03-.03,.05-.05,.08-.06h0Z"/><path class="cls-1" d="M659.45,50.5l-.15,.05-.04,.02-.03,.03-.09-.07h-.01s-.09-.08-.09-.08c.01-.01,.02-.02,.04-.03,0,0,.02-.02,.03-.03,0-.01,.01-.01,.01-.01l.07-.08h.02s.1,.07,.1,.07h.01s.09,.1,.09,.1l.04,.03Z"/></g><path class="cls-2" d="M697.74,49.81c0,2.3-1.53,3.77-3.56,3.77s-3.59-1.47-3.59-3.77,1.56-3.77,3.59-3.77,3.56,1.47,3.56,3.77Z"/><path class="cls-2" d="M715.01,49.81c0,2.3-1.53,3.77-3.58,3.77s-3.57-1.47-3.57-3.77,1.53-3.77,3.57-3.77,3.58,1.47,3.58,3.77Z"/><path class="cls-2" d="M792.42,48.84h-6.83c.27-1.76,1.6-2.94,3.43-2.94s3.18,1.2,3.4,2.94Z"/><path class="cls-2" d="M667.98,49.87l-.55,.76c-1.11,1.21-2.61,2.37-4.59,3.54-1.89,1.11-3.39,1.69-4.49,1.69-.58,0-.86-.28-.86-.85,0-1.37,.7-2.69,2.08-3.92,1.4-1.23,2.89-1.85,4.44-1.85,1.31,0,2.6,.21,3.97,.63Z"/><path class="cls-2" d="M619.61,49.88c-.54,.48-1.04,1.03-1.49,1.64-1.25,1.13-2.71,2.14-4.33,3.02-1.64,.88-2.91,1.32-3.85,1.32-.6,0-.87-.27-.87-.85,0-1.37,.71-2.69,2.09-3.92,1.39-1.23,2.88-1.85,4.43-1.85,1.38,0,2.69,.21,4.02,.64Z"/><path class="cls-2" d="M850.62,50.67v1.4c-.47,1.24-1.67,1.87-3.05,1.87s-2.3-.65-2.3-1.67c0-.88,.52-1.6,2.44-1.6h2.91Z"/><path class="cls-2" d="M887.24,49.45c0,2.05-1.54,3.45-3.66,3.45s-3.68-1.4-3.68-3.45,1.53-3.41,3.68-3.41,3.66,1.38,3.66,3.41Z"/><path class="cls-2" d="M905.07,48.84h-6.84c.27-1.76,1.6-2.94,3.43-2.94s3.18,1.2,3.41,2.94Z"/></svg>